<svg width="200" height="200" viewBox="0 0 200 200" xmlns="http://www.w3.org/2000/svg">
  <g transform="translate(100 100)">
    <path d="M-60 0Q-65-50-30-70Q0-85 30-70Q65-50 60 0Z" fill="#E85D30" />
    <rect x="-12" y="0" width="24" height="50" rx="3" fill="#E85D30" />
    <line x1="-30" y1="-30" x2="-10" y2="-50" stroke="#FFFFFF" stroke-width="1.2" />
    <line x1="-10" y1="-50" x2="15" y2="-50" stroke="#FFFFFF" stroke-width="1.2" />
    <line x1="15" y1="-50" x2="30" y2="-35" stroke="#FFFFFF" stroke-width="1.2" />
    <line x1="0" y1="-25" x2="0" y2="-60" stroke="#FFFFFF" stroke-width="1.2" />
    <circle cx="-30" cy="-30" r="2.5" fill="#FFFFFF" />
    <circle cx="-10" cy="-50" r="2.5" fill="#FFFFFF" />
    <circle cx="15" cy="-50" r="2.5" fill="#FFFFFF" />
    <circle cx="30" cy="-35" r="2.5" fill="#FFFFFF" />
    <circle cx="0" cy="-60" r="2.5" fill="#FFFFFF" />
    <line x1="0" y1="5" x2="0" y2="45" stroke="#FFFFFF" stroke-width="1" opacity="0.6" />
    <circle cx="0" cy="25" r="2" fill="#FFFFFF" opacity="0.8" />
  </g>
</svg>
